<svg width="513" height="495" viewBox="0 0 513 495" fill="none" xmlns="http://www.w3.org/2000/svg">
<path d="M88.8413 393.021C90.9496 374.006 95.824 367.518 109.461 361.504C116.209 380.186 109.293 385.972 88.8413 393.021Z" fill="#7CBA5C"/>
<path d="M187.5 291.809L176 287.309C189.887 326.86 202.5 340.809 250.5 348.309L247.5 340.809C213 328.809 195 316.309 187.5 291.809Z" fill="#4DC779"/>
<path d="M253.693 164.711C225.185 174.667 213.489 187.077 199.123 217.697L190.5 219.309C205 181.809 220 167.309 257.5 154.809L253.693 164.711Z" fill="#449E47"/>
<path d="M294.684 361.309L295.868 434.309L271 358.809L294.684 361.309Z" fill="#18773D"/>
<path d="M295.868 434.309L294.684 361.309L316 356.809L295.868 434.309Z" fill="#4AAE44"/>
<path d="M294.684 361.309L271 358.823L294.276 332.309L294.684 361.309Z" fill="#1C8346"/>
<path d="M316 356.79L294.684 361.309L294.276 332.309L316 356.79Z" fill="#60B748"/>
<path d="M223.229 254.604L193.976 255.849L197.088 235.309L223.229 254.604Z" fill="#4FC686"/>
<path d="M198.333 273.899L193.976 255.849L223.229 254.604L198.333 273.899Z" fill="#26AA88"/>
<path d="M128 255.226L198.333 273.899L193.976 255.849L128 255.226Z" fill="#2F8681"/>
<path d="M193.976 255.849L128.622 255.226L197.088 235.309L193.976 255.849Z" fill="#53BD9E"/>
<path d="M364 259.339H393.253L391.386 276.766L364 259.339Z" fill="#358141"/>
<path d="M364 259.339H393.253L392.631 236.309L364 259.339Z" fill="#6DB947"/>
<path d="M460.474 258.094L391.386 276.766L393.253 259.338L460.474 258.094Z" fill="#3D9C52"/>
<path d="M425.619 259.339H393.253L392.631 236.309L460.474 258.094L425.619 259.339Z" fill="#A1D244"/>
<path d="M293.274 195.895V175.356L315.681 165.397L293.274 195.895Z" fill="#65B03D"/>
<path d="M293.274 195.895L269 167.887L293.274 175.356V195.895Z" fill="#277D51"/>
<path d="M292.652 96.3092L293.274 175.356L315.681 165.397L292.652 96.3092Z" fill="#BADA4F"/>
<path d="M269 167.887L293.274 175.356L292.652 96.9316L269 167.887Z" fill="#34945C"/>
<path d="M306.599 242.933L308.198 285.264L330.233 278.413C343.39 245.179 347.08 227.87 351.217 197.87L306.599 242.933Z" fill="#349644"/>
<path d="M294.106 263.114L245.239 318.904C290.956 308.732 310.699 299.697 332.682 276.104L311.286 282.979L294.106 263.114Z" fill="#1F803A"/>
<path d="M281.594 260.559L244.626 306.552C242.483 266.712 247.55 248.036 269.593 222.317L275.31 240.466L291.153 244.909L256.303 251.915L281.594 260.559Z" fill="#42AF44"/>
<path d="M351.881 197.254L269.593 222.317L275.31 240.466L290.514 244.885L306.599 242.933L351.881 197.254Z" fill="#85CA4A"/>
<path d="M315.354 282.333C326.743 270.55 332.079 245.015 341.949 205.845" stroke="#28722D"/>
<path d="M252.611 247.932C262.213 234.239 286.025 224.589 342.588 205.869" stroke="#5C932D"/>
<path d="M390.5 220.809C381.385 190.562 368.336 178.917 336 164.809L331 152.309C374.348 168.491 390.101 183.054 404.5 224.309L390.5 220.809Z" fill="#58AA3F"/>
<path d="M319 119.309L331 152.309C369.539 167.113 386.206 182.106 404.5 224.309L439 234.309C412 152.309 398.5 137.309 319 119.309Z" fill="#A6CE47"/>
<path d="M148 230.809L190.5 219.309C204.908 183.42 218.277 167.837 257.5 154.809L271.639 118.819C193.68 129.538 168.438 155.967 148 230.809Z" fill="#74C150"/>
<path d="M142 277.309L176 287.309C190.929 330.894 208.784 342.093 250.5 348.309L266.5 387.809C229.614 385.201 208.064 377.462 167 344.809C164.135 312.567 157.4 298.863 142 277.309Z" fill="#3A9482"/>
<path d="M403.5 294.309C392.621 323.502 366.076 342.107 329.5 351.809L319 387.809C403.5 372.309 426.5 351.809 443 279.809L403.5 294.309Z" fill="#786636"/>
<path d="M384 301.809C380.67 319.947 345 335.809 334 335.309L329.5 351.809C376.9 342.26 392.346 329.211 403.5 294.309L384 301.809Z" fill="#695E42"/>
<path d="M247 347.809C230.434 345.282 222.409 342.284 209 335.809L216 326.809C227.021 333.125 233.477 335.741 246 340.309L247 347.809Z" fill="#40B86C"/>
<path d="M331 152.309L329 146.809L354 128.309L355 163.309C346.002 158.453 340.826 155.929 331 152.309Z" fill="#E5EA60"/>
<path d="M402 156.309L374 176.809L379 181.809L416.5 177.309C408.275 162.584 404.507 158.817 402.007 156.317L402 156.309Z" fill="#90BD24"/>
<path d="M420 184.309L394 202.809C398.348 210.771 400.66 215.461 404.5 224.309L439 234.309C432.616 214.346 428.592 203.343 420 184.309Z" fill="#66B62C"/>
<path d="M370 173.309C365.484 169.888 362.891 168.009 358 164.809L361 130.809L370 173.309Z" fill="#EEED6A"/>
<path d="M373 187.809L371 185.809L374 176.809C376.149 178.781 377.16 179.806 379 181.809L373 187.809Z" fill="#257C2D"/>
<path d="M390.5 220.809L387.5 212.309L395 204.309C398.922 211.972 401.013 216.351 404.5 224.309L390.5 220.809Z" fill="#36843B"/>
<path d="M403.5 294.309C397.874 312.431 392.775 320.184 381.5 331.309L432.5 315.309L403.5 294.309Z" fill="#BE8F42"/>
<path d="M363.5 377.309L329.5 351.809C341.438 349.63 348.737 347.73 364 341.809L363.5 377.309Z" fill="#A37930"/>
<path d="M319 387.809L329.5 351.809L363.5 377.309C346.002 382.424 336.262 384.668 319 387.809Z" fill="#67683F"/>
<path d="M375.5 335.809L368.5 339.809L373.5 373.809C394.608 365.507 404.036 358.859 417 343.809L375.5 335.809Z" fill="#8E7738"/>
<path d="M183 304.809C179.88 298.137 178.366 294.296 176 287.309L187.5 291.809L189.5 297.309L183 304.809Z" fill="#178361"/>
<path d="M215.5 376.309L209 335.809C223.036 342.775 231.183 345.26 247 347.809L215.5 376.309Z" fill="#3FA388"/>
<path d="M183 304.809L164 323.309C159.75 305.472 154.918 295.348 142 277.309L176 287.309C178.458 294.435 179.957 298.307 183 304.809Z" fill="#196263"/>
<path d="M159.5 195.309L202.5 194.309L190.5 219.309L148 230.809C151.784 216.982 154.156 209.217 159.5 195.309Z" fill="#298E4B"/>
<path d="M173.5 168.309C166.899 178.523 163.937 184.464 159.5 195.309L202.5 194.309L204 191.809L173.5 168.309Z" fill="#3B9E4D"/>
<path d="M243 160.309L201 140.809C218.462 130.553 230.918 126.306 256 121.309L243 160.309Z" fill="#A5D54E"/>
<path d="M373 172.809L374.5 185.309H388.5L401 162.309L373 172.809Z" fill="#F9F2AF"/>
<path d="M380.213 343.824L377.37 329.309L391.563 330.284L404.932 351.249L380.213 343.824Z" fill="#FDCE68"/>
<path d="M195.135 324.452L209 322.309L206.081 340.881L182 347.309L195.135 324.452Z" fill="#AFEAD3"/>
<path d="M205.5 181.309L191 153.309L220 165.559V181.309H205.5Z" fill="#D7E5A8"/>
<path d="M456.5 53.3037C380.273 39.4504 340.802 49.0636 313.5 90.3037L314 91.3037C381.173 131.612 422.621 114.184 456.5 53.3037Z" fill="#A0C72C"/>
<path d="M310 90.8652C347.981 87.0275 364.275 82.6428 417.5 64.3652" stroke="#3C6F2B"/>
<path d="M365.5 81.3652L313.5 90.8652C346.673 112.509 377.5 119.865 405.5 107.365L365.5 81.3652Z" fill="#3C6F2B"/>
<path d="M405.5 107.365L365.5 81.3652L386 75.3652L420.5 98.3652C414.8 102.594 411.525 104.603 405.5 107.365Z" fill="#6EB03C"/>
<path d="M432 87.8652L385.5 75.3652L418 64.8652L436.5 82.8652C435.005 84.7195 433.633 86.2104 432 87.8652Z" fill="#99C83D"/>
<path d="M420.5 98.3652L385.5 75.3652L432 87.8652C428.438 91.7671 426.081 94.0323 420.5 98.3652Z" fill="#5D993A"/>
<path d="M456.5 53.3652L417.5 64.8652L436.5 82.8652C445.989 71.4215 450.189 64.7409 456.5 53.3652Z" fill="#85B835"/>
<path d="M341.5 84.8657L340.5 62.3657C365.012 48.3731 382 45.3653 421.5 48.3652L418 64.8656L366.5 80.3657L377.5 48.8652L341.5 84.8657Z" fill="#ABCF4A"/>
<path d="M341.5 61.8651C330.269 69.3307 322.574 76.304 313.5 90.3651C334.188 88.0298 366.483 80.9218 366.5 80.3651C366.517 79.8084 384.5 47.8648 384.5 47.8648C381.384 48.013 376.314 48.7238 373.5 49.3648L342 84.3651L341.5 61.8651Z" fill="#66AA4F"/>
<path d="M486.5 105.565C471.422 99.2063 464.675 97.9365 460 105.565V108.065C469.695 116.289 475.529 115.32 486.5 105.565Z" fill="#87BF77"/>
<path d="M499.5 430.565C484.422 424.206 477.675 422.937 473 430.565V433.065C482.695 441.289 488.529 440.32 499.5 430.565Z" fill="#87BF77"/>
<path d="M60.2073 247.251L148.368 368.993C154.534 297.92 138.724 268.964 60.2073 247.251Z" fill="#7CB53B"/>
<path d="M72.2033 317.632C64.6583 307.916 62.8228 301.704 61.4478 290.01L98.7907 297.836C113.075 313.712 120.871 322.673 133.341 338.063L72.2033 317.632Z" fill="#4C9C3B"/>
<path d="M98.7908 297.836L61.4479 290.01C60.172 272.517 60.4545 263.711 60.2068 247.251L98.7908 297.836Z" fill="#42843A"/>
<path d="M133.342 338.063L72.2035 317.632C107.409 335.532 125.892 346.063 148.367 368.993C146.155 357.899 143.47 351.29 133.342 338.063Z" fill="#387339"/>
<path d="M63.3503 251.494C105.368 312.174 146 339.309 148 368.809" stroke="#5A8D2B"/>
<path d="M112.568 268.117C100.01 260.91 94.8246 258.656 84.0477 254.867L103.061 301.144C111.819 312.148 118.735 319.223 130.798 334.083L139.415 294.941C131.645 282.536 126.39 277.355 115.902 270.298L123.911 325.333L123.458 324.735L112.568 268.117Z" fill="#BDD847"/>
<path d="M0.128049 185.308L93.3777 243.744C74.7232 188.702 55.7475 172.93 0.128049 185.308Z" fill="#7CB53B"/>
<path d="M29.8408 233.242C22.0826 228.763 18.9778 224.814 14.4248 216.626L40.0864 208.88C53.9775 215.489 61.6526 219.315 74.2639 226.221L29.8408 233.242Z" fill="#4C9C3B"/>
<path d="M40.0864 208.88L14.4248 216.626C8.09895 204.093 5.48879 197.448 0.12793 185.308L40.0864 208.88Z" fill="#42843A"/>
<path d="M74.2641 226.221L29.841 233.242C57.3622 233.757 72.1693 234.87 93.3778 243.745C88.4943 236.305 84.7369 232.37 74.2641 226.221Z" fill="#387339"/>
<path d="M3.42212 187.32C48.7059 217.145 82.5177 222.551 93.0914 243.741" stroke="#5A8D2B"/>
<path d="M39.2392 181.798C29.1624 181.003 25.2299 181.212 17.34 182.31L43.7841 209.787C52.7028 214.783 59.2354 217.527 71.4256 224.188L64.3938 191.979C55.6453 185.583 50.7438 183.642 41.9994 182.208L64.3818 220.187L63.9115 219.908L39.2392 181.798Z" fill="#BDD847"/>
<path d="M432.5 129.309L424.5 131.809C497.732 204.426 508.688 258.335 462.5 359.309L471.5 396.809C554.137 255.54 498.41 172.443 432.5 129.309Z" fill="#8EC744"/>
<path d="M424.5 131.809L416 134.309C489.947 212.209 492.434 262.373 452 359.309H462.5C509.87 255.25 500.328 204.195 424.5 131.809Z" fill="#48AB42"/>
<path d="M452 359.309H462.5C474.278 335.548 480.024 319.203 488.5 283.809L475.5 285.809C469.481 312.933 464.28 329.03 452 359.309Z" fill="#286B24"/>
<path d="M462.5 173.809L455 182.809L444.5 167.809L441.5 148.809C449.206 157.257 453.651 162.325 462.5 173.809Z" fill="#419544"/>
<path d="M479.5 201.809C465.822 176.203 457.27 165.57 441.5 148.809L466.5 156.809L471.5 185.809L479.5 171.309C482.666 175.013 484.422 177.373 487.5 182.309L479.5 201.809Z" fill="#E7F065"/>
<path d="M488.5 283.809L462.5 359.309L471.5 396.809C502.306 341.842 507.482 321.212 511.5 288.809L488.5 283.809Z" fill="#399A42"/>
<path d="M465 351.809L462.5 359.309L471.5 396.809C479.988 383.144 488.452 364.375 496 348.809L465 351.809Z" fill="#1A7D44"/>
<path d="M490 275.309L488.5 283.809L511.5 288.809C513.726 267.187 512.996 258.925 511.5 244.809L490 275.309Z" fill="#5EB448"/>
<path d="M386.389 433.75C291.206 472.088 231.936 454.791 117.103 394.309C204.58 490.016 327.061 500.788 413.225 453.2L431.014 473.835L429.412 405.237L374.868 419.838L386.389 433.75Z" fill="#4FBB53"/>
<path d="M431.014 473.835L410.877 463.124C358.626 481.078 318.357 489.89 283.397 488.921C225.6 487.318 182.31 458.984 123.372 401.032C219.303 481.151 284.726 501.826 413.225 453.2L431.014 473.835Z" fill="#105C32"/>
<path d="M171.618 437.742L160.212 434.841C187.876 458.3 203.603 468.385 232.199 479.386L227.621 467.218L211.509 470.157L190.222 449.4L182.122 452.118L178.956 442.502L172.373 444.773L171.618 437.742Z" fill="#0D4B2C"/>
<path d="M300.244 479.265L291.9 488.979C320.092 487.839 336.339 485.946 367.378 476.611L363.126 469.458L355.763 479.707L346.479 473.378L340.133 483.163L328.35 476.747L311.957 487.68L300.244 479.265Z" fill="#0D4B2C"/>
<path d="M394.677 468.561L397.008 459.137L404.608 456.401L410.877 463.124L413.225 453.2L431.014 473.835L410.877 463.124L394.677 468.561Z" fill="#0D4B2C"/>
<path d="M418.946 418.379L413.225 453.2L431.014 473.835L429.412 405.237L418.946 418.379Z" fill="#267C3B"/>
<path d="M429.412 405.237L418.946 418.379L390.456 431.891L374.868 419.838L429.412 405.237Z" fill="#50BD53"/>
<path d="M390.456 431.891L418.946 418.379L413.225 453.2L397.008 459.137L386.389 433.75L374.868 419.838L390.456 431.891Z" fill="#2D853F"/>
<path d="M123.372 401.033L117.103 394.309L180.55 425.547L178.956 442.502C154.75 426.532 142.576 417.45 123.372 401.033Z" fill="#20813E"/>
<path d="M235.529 469.997L216.573 439.815C237.304 446.801 248.926 449.536 269.655 452.679L235.529 469.997Z" fill="#96CF40"/>
<path d="M276.259 478.426L269.655 452.679C282.517 453.88 289.891 453.983 303.135 453.851C330.079 451.946 346.703 448.304 379.288 436.503L346.479 473.378L303.117 454.351L276.259 478.426Z" fill="#36A853"/>
<path d="M379.288 436.503L346.479 473.378C365.984 469.457 377.11 465.88 397.008 459.137L386.389 433.75L379.288 436.503Z" fill="#298F49"/>
<path d="M276.259 478.426C259.029 476.317 250.048 474.534 235.529 469.997L269.656 452.679L276.294 477.427L303.118 454.351L346.479 473.378C317.998 479.203 302.751 479.837 276.259 478.426Z" fill="#32963F"/>
<path d="M106 214.309C100.061 200.649 96.1999 196.097 89 189.809C128.547 98.2827 176.647 61.7817 286.5 51.3092L265.5 75.3092C174.28 95.3818 139.245 123.153 106 214.309Z" fill="#E0B55C"/>
<path d="M116 235.809L106 214.309C132.005 126.112 169.076 93.7162 265.5 75.3092L261 86.8092C161.114 117.462 131.914 153.157 116 235.809Z" fill="#9C7A3F"/>
<path d="M89 189.809C96.3066 195.693 100.065 200.84 106 214.309L117.5 180.809L105 156.809C98.1577 169.439 94.5184 176.606 89 189.809Z" fill="#7E6A38"/>
<path d="M122 130.309C114.348 140.006 110.493 145.723 105 156.809L117.5 180.809L139 140.809L122 130.309Z" fill="#B18F45"/>
<path d="M174 82.3092L171.5 109.309C180.937 102.978 187.331 99.609 200 93.8092L174 82.3092Z" fill="#FDEEA8"/>
<path d="M180 122.309L171.5 109.309C181.787 102.366 188.199 99.153 200 93.8092L204.5 108.309C194.683 113.297 189.305 116.356 180 122.309Z" fill="#B08C4D"/>
<path d="M258 76.8092C248.954 78.6552 243.789 79.9082 234.5 82.3092L230 60.3092C241.972 57.4399 248.894 56.1659 261.5 54.3092L258 76.8092Z" fill="#F8CA45"/>
<path d="M238 94.3092L234.5 82.3092L258 76.8092L256 88.3092L238 94.3092Z" fill="#B08539"/>
<path d="M129 120.809L125 125.809L143 135.809L161.5 116.809L129 120.809Z" fill="#F2CA74"/>
<path d="M85.3343 362.107C58.6593 390.821 41.8943 391.37 9.29419 369.311C39.8012 344.019 56.4513 339.551 84.7838 360.39L85.3343 362.107Z" fill="#78B669"/>
<path d="M118.621 72.6831C84.818 52.8486 80.6561 36.5991 95.1438 0C126.434 24.3159 134.397 39.6058 120.178 71.7743L118.621 72.6831Z" fill="#78B669"/>
</svg>
